2025-10-04 14:33:05 | INFO | === Application started ===
2025-10-04 14:33:36 | INFO | Mobile portrait mode: loot=440:133:2160:1288, health=370:65:60:1317, stats=280:31:2264:270, alpha=0.8, hb_up=14px, stats_xy=(323,1732)
2025-10-04 14:33:36 | INFO | Audio atempo chain: atempo=1.1
2025-10-04 14:33:36 | INFO | FFmpeg CMD: C:\Users\alon\Desktop\Video_Editing_Software\ffmpeg.exe -y -hwaccel auto -i C:/Users/alon/AppData/Local/Temp/Highlights/Fortnite/Fortnite 2025.10.03 - 23.43.22.08.Double Elimination.DVR.mp4 -ss 10.0 -t 4.545454545454545 -c:v h264_nvenc -rc vbr_hq -b:v 89984.00000000001k -maxrate 134976k -bufsize 179968k -c:a aac -b:a 128k -loglevel info -filter_complex split=5[main][lootbar][healthbar][stats][team];[main]scale=1150:1920:force_original_aspect_ratio=increase,crop=1150:1920[main_cropped];[lootbar]crop=440:133:2160:1288,scale=700:211,format=yuva444p,colorchannelmixer=aa=0.8[lootbar_scaled];[healthbar]crop=370:65:60:1317,scale=692:121,format=yuva444p,colorchannelmixer=aa=0.8[healthbar_scaled];[stats]crop=280:31:2264:270,scale=504:56,format=yuva444p,colorchannelmixer=aa=0.7[stats_scaled];[team]crop=160:190:74:26,scale=211:251,format=yuva444p,colorchannelmixer=aa=0.8[team_scaled];[main_cropped][lootbar_scaled]overlay=482:1814[t1];[t1][healthbar_scaled]overlay=-100:1796[t2];[t2][stats_scaled]overlay=323:1732[t3];[t3][team_scaled]overlay=0:0,setpts=PTS/1.1 -af atempo=1.1 C:\Users\alon\Desktop\Video_Editing_Software\Output_Video_Files\Fortnite-Video-1.mp4
2025-10-04 14:33:36 | INFO | FFmpeg: ffmpeg version N-119166-g1e5c65f539-20250408 Copyright (c) 2000-2025 the FFmpeg developers
2025-10-04 14:33:36 | INFO | FFmpeg: built with gcc 14.2.0 (crosstool-NG 1.27.0.18_7458341)
2025-10-04 14:33:36 | INFO | FFmpeg: configuration: --prefix=/ffbuild/prefix --pkg-config-flags=--static --pkg-config=pkg-config --cross-prefix=x86_64-w64-mingw32- --arch=x86_64 --target-os=mingw32 --enable-gpl --enable-version3 --disable-debug --enable-shared --disable-static --disable-w32threads --enable-pthreads --enable-iconv --enable-zlib --enable-libfreetype --enable-libfribidi --enable-gmp --enable-libxml2 --enable-lzma --enable-fontconfig --enable-libharfbuzz --enable-libvorbis --enable-opencl --disable-libpulse --enable-libvmaf --disable-libxcb --disable-xlib --enable-amf --enable-libaom --enable-libaribb24 --enable-avisynth --enable-chromaprint --enable-libdav1d --enable-libdavs2 --enable-libdvdread --enable-libdvdnav --disable-libfdk-aac --enable-ffnvcodec --enable-cuda-llvm --enable-frei0r --enable-libgme --enable-libkvazaar --enable-libaribcaption --enable-libass --enable-libbluray --enable-libjxl --enable-libmp3lame --enable-libopus --enable-librist --enable-libssh --enable-libtheora --enable-libvpx --enable-libwebp --enable-libzmq --enable-lv2 --enable-libvpl --enable-openal --enable-libopencore-amrnb --enable-libopencore-amrwb --enable-libopenh264 --enable-libopenjpeg --enable-libopenmpt --enable-librav1e --enable-librubberband --enable-schannel --enable-sdl2 --enable-libsnappy --enable-libsoxr --enable-libsrt --enable-libsvtav1 --enable-libtwolame --enable-libuavs3d --disable-libdrm --enable-vaapi --enable-libvidstab --enable-vulkan --enable-libshaderc --enable-libplacebo --enable-libvvenc --enable-libx264 --enable-libx265 --enable-libxavs2 --enable-libxvid --enable-libzimg --enable-libzvbi --extra-cflags=-DLIBTWOLAME_STATIC --extra-cxxflags= --extra-libs=-lgomp --extra-ldflags=-pthread --extra-ldexeflags= --cc=x86_64-w64-mingw32-gcc --cxx=x86_64-w64-mingw32-g++ --ar=x86_64-w64-mingw32-gcc-ar --ranlib=x86_64-w64-mingw32-gcc-ranlib --nm=x86_64-w64-mingw32-gcc-nm --extra-version=20250408
2025-10-04 14:33:36 | INFO | FFmpeg: libavutil      60.  1.100 / 60.  1.100
2025-10-04 14:33:36 | INFO | FFmpeg: libavcodec     62.  0.101 / 62.  0.101
2025-10-04 14:33:36 | INFO | FFmpeg: libavformat    62.  0.100 / 62.  0.100
2025-10-04 14:33:36 | INFO | FFmpeg: libavdevice    62.  0.100 / 62.  0.100
2025-10-04 14:33:36 | INFO | FFmpeg: libavfilter    11.  0.100 / 11.  0.100
2025-10-04 14:33:36 | INFO | FFmpeg: libswscale      9.  0.100 /  9.  0.100
2025-10-04 14:33:36 | INFO | FFmpeg: libswresample   6.  0.100 /  6.  0.100
2025-10-04 14:33:36 | INFO | FFmpeg: libpostproc    59.  0.100 / 59.  0.100
2025-10-04 14:33:36 | INFO | FFmpeg: Input #0, mov,mp4,m4a,3gp,3g2,mj2, from 'C:/Users/alon/AppData/Local/Temp/Highlights/Fortnite/Fortnite 2025.10.03 - 23.43.22.08.Double Elimination.DVR.mp4':
2025-10-04 14:33:36 | INFO | FFmpeg: Metadata:
2025-10-04 14:33:36 | INFO | FFmpeg: major_brand     : mp42
2025-10-04 14:33:36 | INFO | FFmpeg: minor_version   : 0
2025-10-04 14:33:36 | INFO | FFmpeg: compatible_brands: isommp42
2025-10-04 14:33:36 | INFO | FFmpeg: creation_time   : 2025-10-03T20:43:22.000000Z
2025-10-04 14:33:36 | INFO | FFmpeg: date            : 2025
2025-10-04 14:33:36 | INFO | FFmpeg: Duration: 00:00:20.04, start: 0.000000, bitrate: 94788 kb/s
2025-10-04 14:33:36 | INFO | FFmpeg: Stream #0:0[0x1](und): Video: h264 (High) (avc1 / 0x31637661), yuv420p(tv, bt709, progressive), 2560x1440 [SAR 1:1 DAR 16:9], 94581 kb/s, 120 fps, 120 tbr, 90k tbn (default)
2025-10-04 14:33:36 | INFO | FFmpeg: Metadata:
2025-10-04 14:33:36 | INFO | FFmpeg: creation_time   : 2025-10-03T20:43:22.000000Z
2025-10-04 14:33:36 | INFO | FFmpeg: handler_name    : VideoHandle
2025-10-04 14:33:36 | INFO | FFmpeg: vendor_id       : [0][0][0][0]
2025-10-04 14:33:36 | INFO | FFmpeg: Stream #0:1[0x2](und): Audio: aac (mp4a / 0x6134706D), 48000 Hz, stereo, fltp, 192 kb/s (default)
2025-10-04 14:33:36 | INFO | FFmpeg: Metadata:
2025-10-04 14:33:36 | INFO | FFmpeg: creation_time   : 2025-10-03T20:43:22.000000Z
2025-10-04 14:33:36 | INFO | FFmpeg: handler_name    : SoundHandle
2025-10-04 14:33:36 | INFO | FFmpeg: vendor_id       : [0][0][0][0]
2025-10-04 14:33:36 | INFO | FFmpeg: [vist#0:0/h264 @ 0000019c4a2058c0] [dec:h264 @ 0000019c4c1c9240] Using auto hwaccel type dxva2 with new default device.
2025-10-04 14:33:36 | INFO | FFmpeg: Stream mapping:
2025-10-04 14:33:36 | INFO | FFmpeg: Stream #0:0 (h264) -> split:default
2025-10-04 14:33:36 | INFO | FFmpeg: setpts:default -> Stream #0:0 (h264_nvenc)
2025-10-04 14:33:36 | INFO | FFmpeg: Stream #0:1 -> #0:1 (aac (native) -> aac (native))
2025-10-04 14:33:36 | INFO | FFmpeg: Press [q] to stop, [?] for help
2025-10-04 14:33:40 | INFO | FFmpeg: [h264_nvenc @ 0000019c4d0e6880] Specified rc mode is deprecated.
2025-10-04 14:33:40 | INFO | FFmpeg: [h264_nvenc @ 0000019c4d0e6880] Use -rc constqp/cbr/vbr, -tune and -multipass instead.
2025-10-04 14:33:40 | INFO | FFmpeg: Output #0, mp4, to 'C:\Users\alon\Desktop\Video_Editing_Software\Output_Video_Files\Fortnite-Video-1.mp4':
2025-10-04 14:33:40 | INFO | FFmpeg: Metadata:
2025-10-04 14:33:40 | INFO | FFmpeg: major_brand     : mp42
2025-10-04 14:33:40 | INFO | FFmpeg: minor_version   : 0
2025-10-04 14:33:40 | INFO | FFmpeg: compatible_brands: isommp42
2025-10-04 14:33:40 | INFO | FFmpeg: date            : 2025
2025-10-04 14:33:40 | INFO | FFmpeg: encoder         : Lavf62.0.100
2025-10-04 14:33:40 | INFO | FFmpeg: Stream #0:0: Video: h264 (Main) (avc1 / 0x31637661), nv12(tv, bt709, progressive), 1150x1920 [SAR 10240:10239 DAR 18400:30717], q=2-31, 89984 kb/s, 120 fps, 15360 tbn
2025-10-04 14:33:40 | INFO | FFmpeg: Metadata:
2025-10-04 14:33:40 | INFO | FFmpeg: encoder         : Lavc62.0.101 h264_nvenc
2025-10-04 14:33:40 | INFO | FFmpeg: Side data:
2025-10-04 14:33:40 | INFO | FFmpeg: cpb: bitrate max/min/avg: 134976000/0/89984000 buffer size: 179968000 vbv_delay: N/A
2025-10-04 14:33:40 | INFO | FFmpeg: Stream #0:1(und): Audio: aac (LC) (mp4a / 0x6134706D), 48000 Hz, stereo, fltp, 128 kb/s (default)
2025-10-04 14:33:40 | INFO | FFmpeg: Metadata:
2025-10-04 14:33:40 | INFO | FFmpeg: encoder         : Lavc62.0.101 aac
2025-10-04 14:33:40 | INFO | FFmpeg: creation_time   : 2025-10-03T20:43:22.000000Z
2025-10-04 14:33:40 | INFO | FFmpeg: handler_name    : SoundHandle
2025-10-04 14:33:40 | INFO | FFmpeg: vendor_id       : [0][0][0][0]
2025-10-04 14:33:41 | INFO | FFmpeg: frame=    1 fps=0.2 q=11.0 size=       0KiB time=-00:00:00.00 bitrate=N/A speed=N/A
2025-10-04 14:33:41 | INFO | FFmpeg: frame=  156 fps= 33 q=20.0 size=   18176KiB time=00:00:01.27 bitrate=116782.9kbits/s dup=0 drop=16 speed=0.274x
2025-10-04 14:33:42 | INFO | FFmpeg: frame=  309 fps= 60 q=18.0 size=   32512KiB time=00:00:02.54 bitrate=104789.0kbits/s dup=0 drop=31 speed=0.492x
2025-10-04 14:33:42 | INFO | FFmpeg: frame=  464 fps= 82 q=16.0 size=   46848KiB time=00:00:03.84 bitrate=99899.1kbits/s dup=0 drop=47 speed=0.676x
2025-10-04 14:33:42 | INFO | FFmpeg: [out#0/mp4 @ 0000019c4a1a2900] video:56694KiB audio:72KiB subtitle:0KiB other streams:0KiB global headers:0KiB muxing overhead: 0.022163%
2025-10-04 14:33:42 | INFO | FFmpeg: frame=  546 fps= 92 q=17.0 Lsize=   56778KiB time=00:00:04.52 bitrate=102790.9kbits/s dup=0 drop=53 speed=0.764x
2025-10-04 14:33:42 | INFO | FFmpeg: [aac @ 0000019c4a22eac0] Qavg: 740.702
2025-10-04 14:33:42 | INFO | Job SUCCESS | start=11s end=16s | res=2560x1440 | mobile=True | speed=1.1x | output=C:\Users\alon\Desktop\Video_Editing_Software\Output_Video_Files\Fortnite-Video-1.mp4
2025-10-04 14:33:42 | INFO | RESULT: SUCCESS | file='Fortnite 2025.10.03 - 23.43.22.08.Double Elimination.DVR.mp4' | original_size_bytes=237458348 | new_size_bytes=58141079
2025-10-04 14:38:10 | INFO | === Application started ===
2025-10-04 14:39:50 | INFO | Mobile portrait mode: loot=440:133:2160:1288, health=370:65:60:1317, stats=280:31:2264:270, alpha=0.8, hb_up=14px, stats_xy=(323,1732)
2025-10-04 14:39:50 | INFO | Audio atempo chain: atempo=1.1
2025-10-04 14:39:50 | INFO | FFmpeg CMD: C:\Users\alon\Desktop\Video_Editing_Software\ffmpeg.exe -y -hwaccel auto -i C:\Users\alon\AppData\Local\Temp\Highlights\Fortnite\Fortnite 2025.10.04 - 00.24.27.35.Double Elimination.DVR.mp4 -ss 3.6363636363636362 -t 3.6363636363636362 -c:v h264_nvenc -rc vbr_hq -b:v 112512.00000000001k -maxrate 168768k -bufsize 225024k -c:a aac -b:a 128k -loglevel info -filter_complex split=5[main][lootbar][healthbar][stats][team];[main]scale=1150:1920:force_original_aspect_ratio=increase,crop=1150:1920[main_cropped];[lootbar]crop=440:133:2160:1288,scale=700:211,format=yuva444p,colorchannelmixer=aa=0.8[lootbar_scaled];[healthbar]crop=370:65:60:1317,scale=692:121,format=yuva444p,colorchannelmixer=aa=0.8[healthbar_scaled];[stats]crop=280:31:2264:270,scale=504:56,format=yuva444p,colorchannelmixer=aa=0.7[stats_scaled];[team]crop=160:190:74:26,scale=211:251,format=yuva444p,colorchannelmixer=aa=0.8[team_scaled];[main_cropped][lootbar_scaled]overlay=482:1814[t1];[t1][healthbar_scaled]overlay=-100:1796[t2];[t2][stats_scaled]overlay=323:1732[t3];[t3][team_scaled]overlay=0:0,setpts=PTS/1.1 -af atempo=1.1 C:\Users\alon\Desktop\Video_Editing_Software\Output_Video_Files\Fortnite-Video-2.mp4
2025-10-04 14:39:50 | INFO | FFmpeg: ffmpeg version N-119166-g1e5c65f539-20250408 Copyright (c) 2000-2025 the FFmpeg developers
2025-10-04 14:39:50 | INFO | FFmpeg: built with gcc 14.2.0 (crosstool-NG 1.27.0.18_7458341)
2025-10-04 14:39:50 | INFO | FFmpeg: configuration: --prefix=/ffbuild/prefix --pkg-config-flags=--static --pkg-config=pkg-config --cross-prefix=x86_64-w64-mingw32- --arch=x86_64 --target-os=mingw32 --enable-gpl --enable-version3 --disable-debug --enable-shared --disable-static --disable-w32threads --enable-pthreads --enable-iconv --enable-zlib --enable-libfreetype --enable-libfribidi --enable-gmp --enable-libxml2 --enable-lzma --enable-fontconfig --enable-libharfbuzz --enable-libvorbis --enable-opencl --disable-libpulse --enable-libvmaf --disable-libxcb --disable-xlib --enable-amf --enable-libaom --enable-libaribb24 --enable-avisynth --enable-chromaprint --enable-libdav1d --enable-libdavs2 --enable-libdvdread --enable-libdvdnav --disable-libfdk-aac --enable-ffnvcodec --enable-cuda-llvm --enable-frei0r --enable-libgme --enable-libkvazaar --enable-libaribcaption --enable-libass --enable-libbluray --enable-libjxl --enable-libmp3lame --enable-libopus --enable-librist --enable-libssh --enable-libtheora --enable-libvpx --enable-libwebp --enable-libzmq --enable-lv2 --enable-libvpl --enable-openal --enable-libopencore-amrnb --enable-libopencore-amrwb --enable-libopenh264 --enable-libopenjpeg --enable-libopenmpt --enable-librav1e --enable-librubberband --enable-schannel --enable-sdl2 --enable-libsnappy --enable-libsoxr --enable-libsrt --enable-libsvtav1 --enable-libtwolame --enable-libuavs3d --disable-libdrm --enable-vaapi --enable-libvidstab --enable-vulkan --enable-libshaderc --enable-libplacebo --enable-libvvenc --enable-libx264 --enable-libx265 --enable-libxavs2 --enable-libxvid --enable-libzimg --enable-libzvbi --extra-cflags=-DLIBTWOLAME_STATIC --extra-cxxflags= --extra-libs=-lgomp --extra-ldflags=-pthread --extra-ldexeflags= --cc=x86_64-w64-mingw32-gcc --cxx=x86_64-w64-mingw32-g++ --ar=x86_64-w64-mingw32-gcc-ar --ranlib=x86_64-w64-mingw32-gcc-ranlib --nm=x86_64-w64-mingw32-gcc-nm --extra-version=20250408
2025-10-04 14:39:50 | INFO | FFmpeg: libavutil      60.  1.100 / 60.  1.100
2025-10-04 14:39:50 | INFO | FFmpeg: libavcodec     62.  0.101 / 62.  0.101
2025-10-04 14:39:50 | INFO | FFmpeg: libavformat    62.  0.100 / 62.  0.100
2025-10-04 14:39:50 | INFO | FFmpeg: libavdevice    62.  0.100 / 62.  0.100
2025-10-04 14:39:50 | INFO | FFmpeg: libavfilter    11.  0.100 / 11.  0.100
2025-10-04 14:39:50 | INFO | FFmpeg: libswscale      9.  0.100 /  9.  0.100
2025-10-04 14:39:50 | INFO | FFmpeg: libswresample   6.  0.100 /  6.  0.100
2025-10-04 14:39:50 | INFO | FFmpeg: libpostproc    59.  0.100 / 59.  0.100
2025-10-04 14:39:50 | INFO | FFmpeg: Input #0, mov,mp4,m4a,3gp,3g2,mj2, from 'C:\Users\alon\AppData\Local\Temp\Highlights\Fortnite\Fortnite 2025.10.04 - 00.24.27.35.Double Elimination.DVR.mp4':
2025-10-04 14:39:50 | INFO | FFmpeg: Metadata:
2025-10-04 14:39:50 | INFO | FFmpeg: major_brand     : mp42
2025-10-04 14:39:50 | INFO | FFmpeg: minor_version   : 0
2025-10-04 14:39:50 | INFO | FFmpeg: compatible_brands: isommp42
2025-10-04 14:39:50 | INFO | FFmpeg: creation_time   : 2025-10-03T21:24:28.000000Z
2025-10-04 14:39:50 | INFO | FFmpeg: date            : 2025
2025-10-04 14:39:50 | INFO | FFmpeg: Duration: 00:00:20.04, start: 0.000000, bitrate: 80248 kb/s
2025-10-04 14:39:50 | INFO | FFmpeg: Stream #0:0[0x1](und): Video: h264 (High) (avc1 / 0x31637661), yuv420p(tv, bt709, progressive), 2560x1440 [SAR 1:1 DAR 16:9], 80042 kb/s, 120.01 fps, 120 tbr, 90k tbn (default)
2025-10-04 14:39:50 | INFO | FFmpeg: Metadata:
2025-10-04 14:39:50 | INFO | FFmpeg: creation_time   : 2025-10-03T21:24:28.000000Z
2025-10-04 14:39:50 | INFO | FFmpeg: handler_name    : VideoHandle
2025-10-04 14:39:50 | INFO | FFmpeg: vendor_id       : [0][0][0][0]
2025-10-04 14:39:50 | INFO | FFmpeg: Stream #0:1[0x2](und): Audio: aac (mp4a / 0x6134706D), 48000 Hz, stereo, fltp, 191 kb/s (default)
2025-10-04 14:39:50 | INFO | FFmpeg: Metadata:
2025-10-04 14:39:50 | INFO | FFmpeg: creation_time   : 2025-10-03T21:24:28.000000Z
2025-10-04 14:39:50 | INFO | FFmpeg: handler_name    : SoundHandle
2025-10-04 14:39:50 | INFO | FFmpeg: vendor_id       : [0][0][0][0]
2025-10-04 14:39:50 | INFO | FFmpeg: [vist#0:0/h264 @ 00000186dbd11e40] [dec:h264 @ 00000186dae25cc0] Using auto hwaccel type dxva2 with new default device.
2025-10-04 14:39:50 | INFO | FFmpeg: Stream mapping:
2025-10-04 14:39:50 | INFO | FFmpeg: Stream #0:0 (h264) -> split:default
2025-10-04 14:39:50 | INFO | FFmpeg: setpts:default -> Stream #0:0 (h264_nvenc)
2025-10-04 14:39:50 | INFO | FFmpeg: Stream #0:1 -> #0:1 (aac (native) -> aac (native))
2025-10-04 14:39:50 | INFO | FFmpeg: Press [q] to stop, [?] for help
2025-10-04 14:39:52 | INFO | FFmpeg: [h264_nvenc @ 00000186dae27680] Specified rc mode is deprecated.
2025-10-04 14:39:52 | INFO | FFmpeg: [h264_nvenc @ 00000186dae27680] Use -rc constqp/cbr/vbr, -tune and -multipass instead.
2025-10-04 14:39:52 | INFO | FFmpeg: Output #0, mp4, to 'C:\Users\alon\Desktop\Video_Editing_Software\Output_Video_Files\Fortnite-Video-2.mp4':
2025-10-04 14:39:52 | INFO | FFmpeg: Metadata:
2025-10-04 14:39:52 | INFO | FFmpeg: major_brand     : mp42
2025-10-04 14:39:52 | INFO | FFmpeg: minor_version   : 0
2025-10-04 14:39:52 | INFO | FFmpeg: compatible_brands: isommp42
2025-10-04 14:39:52 | INFO | FFmpeg: date            : 2025
2025-10-04 14:39:52 | INFO | FFmpeg: encoder         : Lavf62.0.100
2025-10-04 14:39:52 | INFO | FFmpeg: Stream #0:0: Video: h264 (Main) (avc1 / 0x31637661), nv12(tv, bt709, progressive), 1150x1920 [SAR 10240:10239 DAR 18400:30717], q=2-31, 112512 kb/s, 120 fps, 15360 tbn
2025-10-04 14:39:52 | INFO | FFmpeg: Metadata:
2025-10-04 14:39:52 | INFO | FFmpeg: encoder         : Lavc62.0.101 h264_nvenc
2025-10-04 14:39:52 | INFO | FFmpeg: Side data:
2025-10-04 14:39:52 | INFO | FFmpeg: cpb: bitrate max/min/avg: 168768000/0/112512000 buffer size: 225024000 vbv_delay: N/A
2025-10-04 14:39:52 | INFO | FFmpeg: Stream #0:1(und): Audio: aac (LC) (mp4a / 0x6134706D), 48000 Hz, stereo, fltp, 128 kb/s (default)
2025-10-04 14:39:52 | INFO | FFmpeg: Metadata:
2025-10-04 14:39:52 | INFO | FFmpeg: encoder         : Lavc62.0.101 aac
2025-10-04 14:39:52 | INFO | FFmpeg: creation_time   : 2025-10-03T21:24:28.000000Z
2025-10-04 14:39:52 | INFO | FFmpeg: handler_name    : SoundHandle
2025-10-04 14:39:52 | INFO | FFmpeg: vendor_id       : [0][0][0][0]
2025-10-04 14:39:53 | INFO | FFmpeg: frame=  104 fps= 50 q=15.0 size=   13056KiB time=00:00:00.83 bitrate=128346.2kbits/s dup=0 drop=11 speed=0.403x
2025-10-04 14:39:53 | INFO | FFmpeg: frame=  259 fps=100 q=19.0 size=   35328KiB time=00:00:02.13 bitrate=135659.7kbits/s dup=0 drop=26 speed=0.825x
2025-10-04 14:39:54 | INFO | FFmpeg: frame=  413 fps=133 q=16.0 size=   52480KiB time=00:00:03.41 bitrate=125829.2kbits/s dup=0 drop=41 speed= 1.1x
2025-10-04 14:39:54 | INFO | FFmpeg: [out#0/mp4 @ 00000186d8d42dc0] video:55215KiB audio:57KiB subtitle:0KiB other streams:0KiB global headers:0KiB muxing overhead: 0.018755%
2025-10-04 14:39:54 | INFO | FFmpeg: frame=  437 fps=139 q=15.0 Lsize=   55282KiB time=00:00:03.61 bitrate=125218.5kbits/s dup=0 drop=43 speed=1.15x
2025-10-04 14:39:54 | INFO | FFmpeg: [aac @ 00000186dbcfb040] Qavg: 281.283
2025-10-04 14:39:54 | INFO | Job SUCCESS | start=4s end=8s | res=2560x1440 | mobile=True | speed=1.1x | output=C:\Users\alon\Desktop\Video_Editing_Software\Output_Video_Files\Fortnite-Video-2.mp4
2025-10-04 14:39:54 | INFO | RESULT: SUCCESS | file='Fortnite 2025.10.04 - 00.24.27.35.Double Elimination.DVR.mp4' | original_size_bytes=201029862 | new_size_bytes=56609180
2025-10-04 14:45:12 | INFO | === Application started ===
2025-10-04 14:45:35 | INFO | Mobile portrait mode: loot=440:133:2160:1288, health=370:65:60:1317, stats=280:31:2264:270, alpha=0.8, hb_up=14px, stats_xy=(323,1732)
2025-10-04 14:45:35 | INFO | Audio atempo chain: atempo=1.1
2025-10-04 14:45:35 | INFO | FFmpeg CMD: C:\Users\alon\Desktop\Video_Editing_Software\ffmpeg.exe -y -hwaccel auto -i C:/Users/alon/AppData/Local/Temp/Highlights/Fortnite/Fortnite 2025.10.04 - 00.00.53.21.Down.DVR.mp4 -ss 0.0 -t 18.18181818181818 -c:v h264_nvenc -rc vbr_hq -b:v 22400.000000000004k -maxrate 33600k -bufsize 44800k -c:a aac -b:a 128k -loglevel info -filter_complex split=5[main][lootbar][healthbar][stats][team];[main]scale=1150:1920:force_original_aspect_ratio=increase,crop=1150:1920[main_cropped];[lootbar]crop=440:133:2160:1288,scale=700:211,format=yuva444p,colorchannelmixer=aa=0.8[lootbar_scaled];[healthbar]crop=370:65:60:1317,scale=692:121,format=yuva444p,colorchannelmixer=aa=0.8[healthbar_scaled];[stats]crop=280:31:2264:270,scale=504:56,format=yuva444p,colorchannelmixer=aa=0.7[stats_scaled];[team]crop=160:190:74:26,scale=211:251,format=yuva444p,colorchannelmixer=aa=0.8[team_scaled];[main_cropped][lootbar_scaled]overlay=482:1814[t1];[t1][healthbar_scaled]overlay=-100:1796[t2];[t2][stats_scaled]overlay=323:1732[t3];[t3][team_scaled]overlay=0:0,setpts=PTS/1.1 -af atempo=1.1 C:\Users\alon\Desktop\Video_Editing_Software\Output_Video_Files\Fortnite-Video-1.mp4
2025-10-04 14:45:35 | INFO | FFmpeg: ffmpeg version N-119166-g1e5c65f539-20250408 Copyright (c) 2000-2025 the FFmpeg developers
2025-10-04 14:45:35 | INFO | FFmpeg: built with gcc 14.2.0 (crosstool-NG 1.27.0.18_7458341)
2025-10-04 14:45:35 | INFO | FFmpeg: configuration: --prefix=/ffbuild/prefix --pkg-config-flags=--static --pkg-config=pkg-config --cross-prefix=x86_64-w64-mingw32- --arch=x86_64 --target-os=mingw32 --enable-gpl --enable-version3 --disable-debug --enable-shared --disable-static --disable-w32threads --enable-pthreads --enable-iconv --enable-zlib --enable-libfreetype --enable-libfribidi --enable-gmp --enable-libxml2 --enable-lzma --enable-fontconfig --enable-libharfbuzz --enable-libvorbis --enable-opencl --disable-libpulse --enable-libvmaf --disable-libxcb --disable-xlib --enable-amf --enable-libaom --enable-libaribb24 --enable-avisynth --enable-chromaprint --enable-libdav1d --enable-libdavs2 --enable-libdvdread --enable-libdvdnav --disable-libfdk-aac --enable-ffnvcodec --enable-cuda-llvm --enable-frei0r --enable-libgme --enable-libkvazaar --enable-libaribcaption --enable-libass --enable-libbluray --enable-libjxl --enable-libmp3lame --enable-libopus --enable-librist --enable-libssh --enable-libtheora --enable-libvpx --enable-libwebp --enable-libzmq --enable-lv2 --enable-libvpl --enable-openal --enable-libopencore-amrnb --enable-libopencore-amrwb --enable-libopenh264 --enable-libopenjpeg --enable-libopenmpt --enable-librav1e --enable-librubberband --enable-schannel --enable-sdl2 --enable-libsnappy --enable-libsoxr --enable-libsrt --enable-libsvtav1 --enable-libtwolame --enable-libuavs3d --disable-libdrm --enable-vaapi --enable-libvidstab --enable-vulkan --enable-libshaderc --enable-libplacebo --enable-libvvenc --enable-libx264 --enable-libx265 --enable-libxavs2 --enable-libxvid --enable-libzimg --enable-libzvbi --extra-cflags=-DLIBTWOLAME_STATIC --extra-cxxflags= --extra-libs=-lgomp --extra-ldflags=-pthread --extra-ldexeflags= --cc=x86_64-w64-mingw32-gcc --cxx=x86_64-w64-mingw32-g++ --ar=x86_64-w64-mingw32-gcc-ar --ranlib=x86_64-w64-mingw32-gcc-ranlib --nm=x86_64-w64-mingw32-gcc-nm --extra-version=20250408
2025-10-04 14:45:35 | INFO | FFmpeg: libavutil      60.  1.100 / 60.  1.100
2025-10-04 14:45:35 | INFO | FFmpeg: libavcodec     62.  0.101 / 62.  0.101
2025-10-04 14:45:35 | INFO | FFmpeg: libavformat    62.  0.100 / 62.  0.100
2025-10-04 14:45:35 | INFO | FFmpeg: libavdevice    62.  0.100 / 62.  0.100
2025-10-04 14:45:35 | INFO | FFmpeg: libavfilter    11.  0.100 / 11.  0.100
2025-10-04 14:45:35 | INFO | FFmpeg: libswscale      9.  0.100 /  9.  0.100
2025-10-04 14:45:35 | INFO | FFmpeg: libswresample   6.  0.100 /  6.  0.100
2025-10-04 14:45:35 | INFO | FFmpeg: libpostproc    59.  0.100 / 59.  0.100
2025-10-04 14:45:35 | INFO | FFmpeg: Input #0, mov,mp4,m4a,3gp,3g2,mj2, from 'C:/Users/alon/AppData/Local/Temp/Highlights/Fortnite/Fortnite 2025.10.04 - 00.00.53.21.Down.DVR.mp4':
2025-10-04 14:45:35 | INFO | FFmpeg: Metadata:
2025-10-04 14:45:35 | INFO | FFmpeg: major_brand     : mp42
2025-10-04 14:45:35 | INFO | FFmpeg: minor_version   : 0
2025-10-04 14:45:35 | INFO | FFmpeg: compatible_brands: isommp42
2025-10-04 14:45:35 | INFO | FFmpeg: creation_time   : 2025-10-03T21:00:54.000000Z
2025-10-04 14:45:35 | INFO | FFmpeg: date            : 2025
2025-10-04 14:45:35 | INFO | FFmpeg: Duration: 00:00:20.04, start: 0.000000, bitrate: 93805 kb/s
2025-10-04 14:45:35 | INFO | FFmpeg: Stream #0:0[0x1](und): Video: h264 (High) (avc1 / 0x31637661), yuv420p(tv, bt709, progressive), 2560x1440 [SAR 1:1 DAR 16:9], 93597 kb/s, 120 fps, 120 tbr, 90k tbn (default)
2025-10-04 14:45:35 | INFO | FFmpeg: Metadata:
2025-10-04 14:45:35 | INFO | FFmpeg: creation_time   : 2025-10-03T21:00:54.000000Z
2025-10-04 14:45:35 | INFO | FFmpeg: handler_name    : VideoHandle
2025-10-04 14:45:35 | INFO | FFmpeg: vendor_id       : [0][0][0][0]
2025-10-04 14:45:35 | INFO | FFmpeg: Stream #0:1[0x2](und): Audio: aac (mp4a / 0x6134706D), 48000 Hz, stereo, fltp, 192 kb/s (default)
2025-10-04 14:45:35 | INFO | FFmpeg: Metadata:
2025-10-04 14:45:35 | INFO | FFmpeg: creation_time   : 2025-10-03T21:00:54.000000Z
2025-10-04 14:45:35 | INFO | FFmpeg: handler_name    : SoundHandle
2025-10-04 14:45:35 | INFO | FFmpeg: vendor_id       : [0][0][0][0]
2025-10-04 14:45:35 | INFO | FFmpeg: [vist#0:0/h264 @ 000001a12fe52a00] [dec:h264 @ 000001a12ff2da00] Using auto hwaccel type dxva2 with new default device.
2025-10-04 14:45:35 | INFO | FFmpeg: Stream mapping:
2025-10-04 14:45:35 | INFO | FFmpeg: Stream #0:0 (h264) -> split:default
2025-10-04 14:45:35 | INFO | FFmpeg: setpts:default -> Stream #0:0 (h264_nvenc)
2025-10-04 14:45:35 | INFO | FFmpeg: Stream #0:1 -> #0:1 (aac (native) -> aac (native))
2025-10-04 14:45:35 | INFO | FFmpeg: Press [q] to stop, [?] for help
2025-10-04 14:45:35 | INFO | FFmpeg: [h264_nvenc @ 000001a133c18040] Specified rc mode is deprecated.
2025-10-04 14:45:35 | INFO | FFmpeg: [h264_nvenc @ 000001a133c18040] Use -rc constqp/cbr/vbr, -tune and -multipass instead.
2025-10-04 14:45:36 | INFO | FFmpeg: Output #0, mp4, to 'C:\Users\alon\Desktop\Video_Editing_Software\Output_Video_Files\Fortnite-Video-1.mp4':
2025-10-04 14:45:36 | INFO | FFmpeg: Metadata:
2025-10-04 14:45:36 | INFO | FFmpeg: major_brand     : mp42
2025-10-04 14:45:36 | INFO | FFmpeg: minor_version   : 0
2025-10-04 14:45:36 | INFO | FFmpeg: compatible_brands: isommp42
2025-10-04 14:45:36 | INFO | FFmpeg: date            : 2025
2025-10-04 14:45:36 | INFO | FFmpeg: encoder         : Lavf62.0.100
2025-10-04 14:45:36 | INFO | FFmpeg: Stream #0:0: Video: h264 (Main) (avc1 / 0x31637661), nv12(tv, bt709, progressive), 1150x1920 [SAR 10240:10239 DAR 18400:30717], q=2-31, 22400 kb/s, 120 fps, 15360 tbn
2025-10-04 14:45:36 | INFO | FFmpeg: Metadata:
2025-10-04 14:45:36 | INFO | FFmpeg: encoder         : Lavc62.0.101 h264_nvenc
2025-10-04 14:45:36 | INFO | FFmpeg: Side data:
2025-10-04 14:45:36 | INFO | FFmpeg: cpb: bitrate max/min/avg: 33600000/0/22400000 buffer size: 44800000 vbv_delay: N/A
2025-10-04 14:45:36 | INFO | FFmpeg: Stream #0:1(und): Audio: aac (LC) (mp4a / 0x6134706D), 48000 Hz, stereo, fltp, 128 kb/s (default)
2025-10-04 14:45:36 | INFO | FFmpeg: Metadata:
2025-10-04 14:45:36 | INFO | FFmpeg: encoder         : Lavc62.0.101 aac
2025-10-04 14:45:36 | INFO | FFmpeg: creation_time   : 2025-10-03T21:00:54.000000Z
2025-10-04 14:45:36 | INFO | FFmpeg: handler_name    : SoundHandle
2025-10-04 14:45:36 | INFO | FFmpeg: vendor_id       : [0][0][0][0]
2025-10-04 14:45:36 | INFO | FFmpeg: frame=   69 fps=0.0 q=32.0 size=       0KiB time=N/A bitrate=N/A dup=0 drop=7 speed=N/A
2025-10-04 14:45:37 | INFO | FFmpeg: frame=  195 fps=190 q=30.0 size=    5376KiB time=00:00:01.60 bitrate=27525.4kbits/s dup=0 drop=20 speed=1.56x
2025-10-04 14:45:37 | INFO | FFmpeg: frame=  344 fps=222 q=28.0 size=    8704KiB time=00:00:02.68 bitrate=26526.6kbits/s dup=0 drop=34 speed=1.74x
2025-10-04 14:45:38 | INFO | FFmpeg: frame=  491 fps=238 q=36.0 size=   13056KiB time=00:00:04.05 bitrate=26354.5kbits/s dup=0 drop=49 speed=1.97x
2025-10-04 14:45:38 | INFO | FFmpeg: frame=  641 fps=248 q=35.0 size=   15872KiB time=00:00:05.30 bitrate=24494.3kbits/s dup=0 drop=64 speed=2.05x
2025-10-04 14:45:39 | INFO | FFmpeg: frame=  786 fps=255 q=35.0 size=   18688KiB time=00:00:06.33 bitrate=24162.3kbits/s dup=0 drop=79 speed=2.05x
2025-10-04 14:45:39 | INFO | FFmpeg: frame=  933 fps=259 q=32.0 size=   22016KiB time=00:00:07.75 bitrate=23271.7kbits/s dup=0 drop=93 speed=2.15x
2025-10-04 14:45:40 | INFO | FFmpeg: frame= 1081 fps=262 q=35.0 size=   25600KiB time=00:00:08.97 bitrate=23366.6kbits/s dup=0 drop=108 speed=2.17x
2025-10-04 14:45:40 | INFO | FFmpeg: frame= 1225 fps=264 q=35.0 size=   29440KiB time=00:00:10.18 bitrate=23683.1kbits/s dup=0 drop=123 speed=2.19x
2025-10-04 14:45:41 | INFO | FFmpeg: frame= 1373 fps=267 q=33.0 size=   32768KiB time=00:00:11.41 bitrate=23512.6kbits/s dup=0 drop=137 speed=2.22x
2025-10-04 14:45:41 | INFO | FFmpeg: frame= 1523 fps=269 q=29.0 size=   35328KiB time=00:00:12.66 bitrate=22847.9kbits/s dup=0 drop=153 speed=2.23x
2025-10-04 14:45:42 | INFO | FFmpeg: frame= 1677 fps=271 q=33.0 size=   38144KiB time=00:00:13.95 bitrate=22399.7kbits/s dup=0 drop=168 speed=2.25x
2025-10-04 14:45:42 | INFO | FFmpeg: frame= 1823 fps=272 q=33.0 size=   41728KiB time=00:00:15.15 bitrate=22551.0kbits/s dup=0 drop=183 speed=2.26x
2025-10-04 14:45:43 | INFO | FFmpeg: frame= 1978 fps=274 q=35.0 size=   46080KiB time=00:00:16.45 bitrate=22936.0kbits/s dup=0 drop=198 speed=2.28x
2025-10-04 14:45:43 | INFO | FFmpeg: frame= 2128 fps=275 q=35.0 size=   49920KiB time=00:00:17.70 bitrate=23093.4kbits/s dup=0 drop=213 speed=2.29x
2025-10-04 14:45:43 | INFO | FFmpeg: [out#0/mp4 @ 000001a12fe9fe40] video:51073KiB audio:287KiB subtitle:0KiB other streams:0KiB global headers:0KiB muxing overhead: 0.089181%
2025-10-04 14:45:43 | INFO | FFmpeg: frame= 2182 fps=276 q=28.0 Lsize=   51406KiB time=00:00:18.15 bitrate=23191.5kbits/s dup=0 drop=217 speed= 2.3x
2025-10-04 14:45:43 | INFO | FFmpeg: [aac @ 000001a12ff2e780] Qavg: 642.716
2025-10-04 14:45:43 | INFO | Job SUCCESS | start=0s end=20s | res=2560x1440 | mobile=True | speed=1.1x | output=C:\Users\alon\Desktop\Video_Editing_Software\Output_Video_Files\Fortnite-Video-1.mp4
2025-10-04 14:45:43 | INFO | RESULT: SUCCESS | file='Fortnite 2025.10.04 - 00.00.53.21.Down.DVR.mp4' | original_size_bytes=235008731 | new_size_bytes=52639982
2025-10-04 14:45:50 | INFO | Mobile portrait mode: loot=440:133:2160:1288, health=370:65:60:1317, stats=280:31:2264:270, alpha=0.8, hb_up=14px, stats_xy=(323,1732)
2025-10-04 14:45:50 | INFO | Audio atempo chain: atempo=1.1
2025-10-04 14:45:50 | INFO | FFmpeg CMD: C:\Users\alon\Desktop\Video_Editing_Software\ffmpeg.exe -y -hwaccel auto -i C:/Users/alon/AppData/Local/Temp/Highlights/Fortnite/Fortnite 2025.10.04 - 00.07.41.24.Eliminated.DVR.mp4 -ss 0.0 -t 13.636363636363635 -c:v h264_nvenc -rc vbr_hq -b:v 29909.33333333334k -maxrate 44864k -bufsize 59818k -c:a aac -b:a 128k -loglevel info -filter_complex split=4[main][lootbar][healthbar][stats];[main]scale=1150:1920:force_original_aspect_ratio=increase,crop=1150:1920[main_cropped];[lootbar]crop=440:133:2160:1288,scale=700:211,format=yuva444p,colorchannelmixer=aa=0.8[lootbar_scaled];[healthbar]crop=370:65:60:1317,scale=692:121,format=yuva444p,colorchannelmixer=aa=0.8[healthbar_scaled];[stats]crop=280:31:2264:270,scale=504:56,format=yuva444p,colorchannelmixer=aa=0.7[stats_scaled];[main_cropped][lootbar_scaled]overlay=482:1814[t1];[t1][healthbar_scaled]overlay=-100:1796[t2];[t2][stats_scaled]overlay=323:1732,setpts=PTS/1.1 -af atempo=1.1 C:\Users\alon\Desktop\Video_Editing_Software\Output_Video_Files\Fortnite-Video-2.mp4
2025-10-04 14:45:51 | INFO | FFmpeg: ffmpeg version N-119166-g1e5c65f539-20250408 Copyright (c) 2000-2025 the FFmpeg developers
2025-10-04 14:45:51 | INFO | FFmpeg: built with gcc 14.2.0 (crosstool-NG 1.27.0.18_7458341)
2025-10-04 14:45:51 | INFO | FFmpeg: configuration: --prefix=/ffbuild/prefix --pkg-config-flags=--static --pkg-config=pkg-config --cross-prefix=x86_64-w64-mingw32- --arch=x86_64 --target-os=mingw32 --enable-gpl --enable-version3 --disable-debug --enable-shared --disable-static --disable-w32threads --enable-pthreads --enable-iconv --enable-zlib --enable-libfreetype --enable-libfribidi --enable-gmp --enable-libxml2 --enable-lzma --enable-fontconfig --enable-libharfbuzz --enable-libvorbis --enable-opencl --disable-libpulse --enable-libvmaf --disable-libxcb --disable-xlib --enable-amf --enable-libaom --enable-libaribb24 --enable-avisynth --enable-chromaprint --enable-libdav1d --enable-libdavs2 --enable-libdvdread --enable-libdvdnav --disable-libfdk-aac --enable-ffnvcodec --enable-cuda-llvm --enable-frei0r --enable-libgme --enable-libkvazaar --enable-libaribcaption --enable-libass --enable-libbluray --enable-libjxl --enable-libmp3lame --enable-libopus --enable-librist --enable-libssh --enable-libtheora --enable-libvpx --enable-libwebp --enable-libzmq --enable-lv2 --enable-libvpl --enable-openal --enable-libopencore-amrnb --enable-libopencore-amrwb --enable-libopenh264 --enable-libopenjpeg --enable-libopenmpt --enable-librav1e --enable-librubberband --enable-schannel --enable-sdl2 --enable-libsnappy --enable-libsoxr --enable-libsrt --enable-libsvtav1 --enable-libtwolame --enable-libuavs3d --disable-libdrm --enable-vaapi --enable-libvidstab --enable-vulkan --enable-libshaderc --enable-libplacebo --enable-libvvenc --enable-libx264 --enable-libx265 --enable-libxavs2 --enable-libxvid --enable-libzimg --enable-libzvbi --extra-cflags=-DLIBTWOLAME_STATIC --extra-cxxflags= --extra-libs=-lgomp --extra-ldflags=-pthread --extra-ldexeflags= --cc=x86_64-w64-mingw32-gcc --cxx=x86_64-w64-mingw32-g++ --ar=x86_64-w64-mingw32-gcc-ar --ranlib=x86_64-w64-mingw32-gcc-ranlib --nm=x86_64-w64-mingw32-gcc-nm --extra-version=20250408
2025-10-04 14:45:51 | INFO | FFmpeg: libavutil      60.  1.100 / 60.  1.100
2025-10-04 14:45:51 | INFO | FFmpeg: libavcodec     62.  0.101 / 62.  0.101
2025-10-04 14:45:51 | INFO | FFmpeg: libavformat    62.  0.100 / 62.  0.100
2025-10-04 14:45:51 | INFO | FFmpeg: libavdevice    62.  0.100 / 62.  0.100
2025-10-04 14:45:51 | INFO | FFmpeg: libavfilter    11.  0.100 / 11.  0.100
2025-10-04 14:45:51 | INFO | FFmpeg: libswscale      9.  0.100 /  9.  0.100
2025-10-04 14:45:51 | INFO | FFmpeg: libswresample   6.  0.100 /  6.  0.100
2025-10-04 14:45:51 | INFO | FFmpeg: libpostproc    59.  0.100 / 59.  0.100
2025-10-04 14:45:51 | INFO | FFmpeg: Input #0, mov,mp4,m4a,3gp,3g2,mj2, from 'C:/Users/alon/AppData/Local/Temp/Highlights/Fortnite/Fortnite 2025.10.04 - 00.07.41.24.Eliminated.DVR.mp4':
2025-10-04 14:45:51 | INFO | FFmpeg: Metadata:
2025-10-04 14:45:51 | INFO | FFmpeg: major_brand     : mp42
2025-10-04 14:45:51 | INFO | FFmpeg: minor_version   : 0
2025-10-04 14:45:51 | INFO | FFmpeg: compatible_brands: isommp42
2025-10-04 14:45:51 | INFO | FFmpeg: creation_time   : 2025-10-03T21:07:46.000000Z
2025-10-04 14:45:51 | INFO | FFmpeg: date            : 2025
2025-10-04 14:45:51 | INFO | FFmpeg: Duration: 00:00:15.11, start: 0.000000, bitrate: 96498 kb/s
2025-10-04 14:45:51 | INFO | FFmpeg: Stream #0:0[0x1](und): Video: h264 (High) (avc1 / 0x31637661), yuv420p(tv, bt709, progressive), 2560x1440 [SAR 1:1 DAR 16:9], 96289 kb/s, 120.01 fps, 120 tbr, 90k tbn (default)
2025-10-04 14:45:51 | INFO | FFmpeg: Metadata:
2025-10-04 14:45:51 | INFO | FFmpeg: creation_time   : 2025-10-03T21:07:46.000000Z
2025-10-04 14:45:51 | INFO | FFmpeg: handler_name    : VideoHandle
2025-10-04 14:45:51 | INFO | FFmpeg: vendor_id       : [0][0][0][0]
2025-10-04 14:45:51 | INFO | FFmpeg: Stream #0:1[0x2](und): Audio: aac (mp4a / 0x6134706D), 48000 Hz, stereo, fltp, 192 kb/s (default)
2025-10-04 14:45:51 | INFO | FFmpeg: Metadata:
2025-10-04 14:45:51 | INFO | FFmpeg: creation_time   : 2025-10-03T21:07:46.000000Z
2025-10-04 14:45:51 | INFO | FFmpeg: handler_name    : SoundHandle
2025-10-04 14:45:51 | INFO | FFmpeg: vendor_id       : [0][0][0][0]
2025-10-04 14:45:51 | INFO | FFmpeg: [vist#0:0/h264 @ 000001c808e7f980] [dec:h264 @ 000001c808f53c80] Using auto hwaccel type dxva2 with new default device.
2025-10-04 14:45:51 | INFO | FFmpeg: Stream mapping:
2025-10-04 14:45:51 | INFO | FFmpeg: Stream #0:0 (h264) -> split:default
2025-10-04 14:45:51 | INFO | FFmpeg: setpts:default -> Stream #0:0 (h264_nvenc)
2025-10-04 14:45:51 | INFO | FFmpeg: Stream #0:1 -> #0:1 (aac (native) -> aac (native))
2025-10-04 14:45:51 | INFO | FFmpeg: Press [q] to stop, [?] for help
2025-10-04 14:45:51 | INFO | FFmpeg: [h264_nvenc @ 000001c80b6ceb00] Specified rc mode is deprecated.
2025-10-04 14:45:51 | INFO | FFmpeg: [h264_nvenc @ 000001c80b6ceb00] Use -rc constqp/cbr/vbr, -tune and -multipass instead.
2025-10-04 14:45:51 | INFO | FFmpeg: Output #0, mp4, to 'C:\Users\alon\Desktop\Video_Editing_Software\Output_Video_Files\Fortnite-Video-2.mp4':
2025-10-04 14:45:51 | INFO | FFmpeg: Metadata:
2025-10-04 14:45:51 | INFO | FFmpeg: major_brand     : mp42
2025-10-04 14:45:51 | INFO | FFmpeg: minor_version   : 0
2025-10-04 14:45:51 | INFO | FFmpeg: compatible_brands: isommp42
2025-10-04 14:45:51 | INFO | FFmpeg: date            : 2025
2025-10-04 14:45:51 | INFO | FFmpeg: encoder         : Lavf62.0.100
2025-10-04 14:45:51 | INFO | FFmpeg: Stream #0:0: Video: h264 (Main) (avc1 / 0x31637661), nv12(tv, bt709, progressive), 1150x1920 [SAR 10240:10239 DAR 18400:30717], q=2-31, 29909 kb/s, 120 fps, 15360 tbn
2025-10-04 14:45:51 | INFO | FFmpeg: Metadata:
2025-10-04 14:45:51 | INFO | FFmpeg: encoder         : Lavc62.0.101 h264_nvenc
2025-10-04 14:45:51 | INFO | FFmpeg: Side data:
2025-10-04 14:45:51 | INFO | FFmpeg: cpb: bitrate max/min/avg: 44864000/0/29909333 buffer size: 59818000 vbv_delay: N/A
2025-10-04 14:45:51 | INFO | FFmpeg: Stream #0:1(und): Audio: aac (LC) (mp4a / 0x6134706D), 48000 Hz, stereo, fltp, 128 kb/s (default)
2025-10-04 14:45:51 | INFO | FFmpeg: Metadata:
2025-10-04 14:45:51 | INFO | FFmpeg: encoder         : Lavc62.0.101 aac
2025-10-04 14:45:51 | INFO | FFmpeg: creation_time   : 2025-10-03T21:07:46.000000Z
2025-10-04 14:45:51 | INFO | FFmpeg: handler_name    : SoundHandle
2025-10-04 14:45:51 | INFO | FFmpeg: vendor_id       : [0][0][0][0]
2025-10-04 14:45:52 | INFO | FFmpeg: frame=   85 fps=0.0 q=35.0 size=    4096KiB time=00:00:00.68 bitrate=49104.6kbits/s dup=0 drop=8 speed=1.32x
2025-10-04 14:45:52 | INFO | FFmpeg: frame=  256 fps=247 q=28.0 size=    7424KiB time=00:00:01.79 bitrate=33938.5kbits/s dup=0 drop=26 speed=1.73x
2025-10-04 14:45:53 | INFO | FFmpeg: frame=  424 fps=273 q=31.0 size=   14592KiB time=00:00:03.50 bitrate=34072.6kbits/s dup=0 drop=43 speed=2.26x
2025-10-04 14:45:53 | INFO | FFmpeg: frame=  590 fps=287 q=28.0 size=   18176KiB time=00:00:04.52 bitrate=32922.6kbits/s dup=0 drop=59 speed= 2.2x
2025-10-04 14:45:54 | INFO | FFmpeg: frame=  761 fps=296 q=30.0 size=   24064KiB time=00:00:06.30 bitrate=31249.6kbits/s dup=0 drop=76 speed=2.45x
2025-10-04 14:45:54 | INFO | FFmpeg: frame=  932 fps=302 q=28.0 size=   29440KiB time=00:00:07.74 bitrate=31152.6kbits/s dup=0 drop=93 speed=2.51x
2025-10-04 14:45:55 | INFO | FFmpeg: frame= 1097 fps=304 q=33.0 size=   33536KiB time=00:00:09.11 bitrate=30134.6kbits/s dup=0 drop=110 speed=2.53x
2025-10-04 14:45:55 | INFO | FFmpeg: frame= 1268 fps=307 q=26.0 size=   38656KiB time=00:00:10.53 bitrate=30063.6kbits/s dup=0 drop=127 speed=2.55x
2025-10-04 14:45:56 | INFO | FFmpeg: frame= 1439 fps=310 q=24.0 size=   41216KiB time=00:00:11.96 bitrate=28215.2kbits/s dup=0 drop=144 speed=2.58x
2025-10-04 14:45:56 | INFO | FFmpeg: frame= 1605 fps=311 q=22.0 size=   44288KiB time=00:00:13.35 bitrate=27176.6kbits/s dup=0 drop=161 speed=2.59x
2025-10-04 14:45:56 | INFO | FFmpeg: [out#0/mp4 @ 000001c808ede240] video:44877KiB audio:214KiB subtitle:0KiB other streams:0KiB global headers:0KiB muxing overhead: 0.077038%
2025-10-04 14:45:56 | INFO | FFmpeg: frame= 1637 fps=313 q=22.0 Lsize=   45126KiB time=00:00:13.61 bitrate=27148.5kbits/s dup=0 drop=164 speed=2.61x
2025-10-04 14:45:56 | INFO | FFmpeg: [aac @ 000001c80b66b040] Qavg: 474.506
2025-10-04 14:45:56 | INFO | Job SUCCESS | start=0s end=15s | res=2560x1440 | mobile=True | speed=1.1x | output=C:\Users\alon\Desktop\Video_Editing_Software\Output_Video_Files\Fortnite-Video-2.mp4
2025-10-04 14:45:56 | INFO | RESULT: SUCCESS | file='Fortnite 2025.10.04 - 00.07.41.24.Eliminated.DVR.mp4' | original_size_bytes=182229312 | new_size_bytes=46209030
